<svg id="Слой_1" data-name="Слой 1" xmlns="http://www.w3.org/2000/svg" viewBox="0 0 356 79.94"><title>logo</title><path d="M0,61l15.15-8.79c3.08,7.14,8.46,10.65,16.15,10.65,6.91,0,10.43-2.08,10.43-6.26a5.66,5.66,0,0,0-3.41-5.27C36.13,50,32,48.43,25.81,46.78c-6.48-1.76-10.88-3.73-15.6-7.25-4.5-3.62-7-9.11-7-16.14s2.53-12.74,7.58-17A27.56,27.56,0,0,1,29,0C41.62,0,51.5,6,57.1,17.35L42.28,26c-2.75-5.82-6.59-8.9-13.29-8.9-5.27,0-8.24,2.64-8.24,5.82a6.25,6.25,0,0,0,2.64,4.94Q26.2,30,34.59,32.5l7.14,2.31a38.16,38.16,0,0,1,6.37,3A18.72,18.72,0,0,1,54,42.06,21.27,21.27,0,0,1,59.3,56.33c0,7.36-2.64,13.07-7.91,17.35S39.2,79.94,30.75,79.94C15,79.94,4.39,72.7,0,61Z"/><path d="M118.49,1.54V18.45H98.72v60H81.15v-60H61.39V1.54Z"/><path d="M141.32,61.5h30.75V78.41H123.75V1.54h47.77V18.45h-30.2V31.19h27.45V47.88H141.32Z"/><path d="M211.77,1.54a25.94,25.94,0,0,1,19.11,7.68,25.4,25.4,0,0,1,7.79,18.67,25.37,25.37,0,0,1-7.79,18.67,26,26,0,0,1-19.11,7.69H200.24V78.41H182.67V1.54Zm0,36.24c5.38,0,9.33-4.29,9.33-9.89S217.15,18,211.77,18H200.24V37.78Z"/><path d="M274.28,1.54a25.91,25.91,0,0,1,19.1,7.68,25.41,25.41,0,0,1,7.8,18.67,25.38,25.38,0,0,1-7.8,18.67,25.91,25.91,0,0,1-19.1,7.69H262.74V78.41H245.17V1.54Zm0,36.24c5.38,0,9.33-4.29,9.33-9.89S279.66,18,274.28,18H262.74V37.78Z"/><path d="M325.25,61.5H356V78.41H307.68V1.54h47.77V18.45h-30.2V31.19h27.46V47.88H325.25Z"/></svg>